<svg width="51" height="52" viewBox="0 0 51 52" fill="none" xmlns="http://www.w3.org/2000/svg">
<path d="M38.2477 0.0108194L31.6342 0C24.2042 0 19.4026 5.02289 19.4026 12.7971V18.6975H12.753C12.1784 18.6975 11.7131 19.1724 11.7131 19.7583V28.3072C11.7131 28.8931 12.179 29.3675 12.753 29.3675H19.4026V50.9392C19.4026 51.525 19.8679 51.9995 20.4425 51.9995H29.1183C29.6929 51.9995 30.1582 51.5245 30.1582 50.9392V29.3675H37.9331C38.5077 29.3675 38.973 28.8931 38.973 28.3072L38.9762 19.7583C38.9762 19.477 38.8664 19.2076 38.6717 19.0085C38.4769 18.8095 38.2117 18.6975 37.9358 18.6975H30.1582V13.6957C30.1582 11.2916 30.7201 10.0712 33.7915 10.0712L38.2467 10.0696C38.8207 10.0696 39.286 9.59461 39.286 9.00928V1.07112C39.286 0.48633 38.8213 0.0119013 38.2477 0.0108194Z" fill="#FB1E8D"/>
</svg>
