<svg width="51" height="52" viewBox="0 0 51 52" fill="none" xmlns="http://www.w3.org/2000/svg">
<path d="M38.2475 0.0108194L31.634 0C24.204 0 19.4024 5.02289 19.4024 12.7971V18.6975H12.7528C12.1782 18.6975 11.7129 19.1724 11.7129 19.7583V28.3072C11.7129 28.8931 12.1787 29.3675 12.7528 29.3675H19.4024V50.9392C19.4024 51.525 19.8677 51.9995 20.4423 51.9995H29.1181C29.6927 51.9995 30.158 51.5245 30.158 50.9392V29.3675H37.9329C38.5075 29.3675 38.9728 28.8931 38.9728 28.3072L38.976 19.7583C38.976 19.477 38.8661 19.2076 38.6714 19.0085C38.4767 18.8095 38.2114 18.6975 37.9355 18.6975H30.158V13.6957C30.158 11.2916 30.7198 10.0712 33.7913 10.0712L38.2464 10.0696C38.8205 10.0696 39.2858 9.59461 39.2858 9.00928V1.07112C39.2858 0.48633 38.821 0.0119013 38.2475 0.0108194Z" fill="black"/>
</svg>
