<svg width="52" height="52" viewBox="0 0 52 52" fill="none" xmlns="http://www.w3.org/2000/svg">
<path d="M37.6493 0H14.3497C6.43729 0 0 6.4376 0 14.35V37.6497C0 45.5624 6.43729 51.9997 14.3497 51.9997H37.6493C45.5624 51.9997 51.9997 45.5621 51.9997 37.6497V14.35C52 6.4376 45.5624 0 37.6493 0ZM47.3863 37.6497C47.3863 43.0184 43.0184 47.386 37.6497 47.386H14.3497C8.98127 47.3863 4.61366 43.0184 4.61366 37.6497V14.35C4.61366 8.98157 8.98127 4.61366 14.3497 4.61366H37.6493C43.0181 4.61366 47.386 8.98157 47.386 14.35V37.6497H47.3863Z" fill="black"/>
<path d="M26.0006 12.6016C18.6122 12.6016 12.6016 18.6122 12.6016 26.0006C12.6016 33.3886 18.6122 39.399 26.0006 39.399C33.3889 39.399 39.3996 33.3886 39.3996 26.0006C39.3996 18.6122 33.3889 12.6016 26.0006 12.6016ZM26.0006 34.785C21.1565 34.785 17.2152 30.8443 17.2152 26.0003C17.2152 21.1559 21.1562 17.2149 26.0006 17.2149C30.8449 17.2149 34.7859 21.1559 34.7859 26.0003C34.7859 30.8443 30.8446 34.785 26.0006 34.785Z" fill="black"/>
<path d="M39.9605 8.68945C39.0716 8.68945 38.1984 9.04932 37.5706 9.67985C36.9398 10.3073 36.5771 11.1808 36.5771 12.0728C36.5771 12.962 36.9401 13.8352 37.5706 14.4658C38.1981 15.0932 39.0716 15.4562 39.9605 15.4562C40.8525 15.4562 41.7229 15.0932 42.3535 14.4658C42.984 13.8352 43.3439 12.9617 43.3439 12.0728C43.3439 11.1808 42.984 10.3073 42.3535 9.67985C41.726 9.04932 40.8525 8.68945 39.9605 8.68945Z" fill="black"/>
</svg>
