<svg width="52" height="52" viewBox="0 0 52 52" fill="none" xmlns="http://www.w3.org/2000/svg">
<path d="M37.6493 0H14.3497C6.43729 0 0 6.4376 0 14.35V37.6497C0 45.5624 6.43729 51.9997 14.3497 51.9997H37.6493C45.5624 51.9997 51.9997 45.5621 51.9997 37.6497V14.35C52 6.4376 45.5624 0 37.6493 0ZM47.3863 37.6497C47.3863 43.0184 43.0184 47.386 37.6497 47.386H14.3497C8.98127 47.3863 4.61366 43.0184 4.61366 37.6497V14.35C4.61366 8.98157 8.98127 4.61366 14.3497 4.61366H37.6493C43.0181 4.61366 47.386 8.98157 47.386 14.35V37.6497H47.3863Z" fill="#FB1E8D"/>
<path d="M26.0001 12.6011C18.6118 12.6011 12.6011 18.6118 12.6011 26.0001C12.6011 33.3881 18.6118 39.3985 26.0001 39.3985C33.3884 39.3985 39.3991 33.3881 39.3991 26.0001C39.3991 18.6118 33.3884 12.6011 26.0001 12.6011ZM26.0001 34.7845C21.156 34.7845 17.2147 30.8438 17.2147 25.9998C17.2147 21.1554 21.1557 17.2144 26.0001 17.2144C30.8444 17.2144 34.7854 21.1554 34.7854 25.9998C34.7854 30.8438 30.8441 34.7845 26.0001 34.7845Z" fill="#FB1E8D"/>
<path d="M39.9608 8.68945C39.0719 8.68945 38.1986 9.04932 37.5709 9.67985C36.94 10.3073 36.5774 11.1808 36.5774 12.0728C36.5774 12.962 36.9403 13.8352 37.5709 14.4658C38.1983 15.0932 39.0719 15.4562 39.9608 15.4562C40.8527 15.4562 41.7232 15.0932 42.3537 14.4658C42.9842 13.8352 43.3441 12.9617 43.3441 12.0728C43.3441 11.1808 42.9842 10.3073 42.3537 9.67985C41.7262 9.04932 40.8527 8.68945 39.9608 8.68945Z" fill="#FB1E8D"/>
</svg>
