<?xml version="1.0" encoding="utf-8"?>
<!-- Generator: Adobe Illustrator 28.0.0, SVG Export Plug-In . SVG Version: 6.00 Build 0)  -->
<svg version="1.1" id="Слой_1" xmlns="http://www.w3.org/2000/svg" xmlns:xlink="http://www.w3.org/1999/xlink" x="0px" y="0px"
	 viewBox="0 0 637.4 248" style="enable-background:new 0 0 637.4 248;" xml:space="preserve">
<style type="text/css">
	.st0{fill:#FFDE00;}
</style>
<path class="st0" d="M33.3,31.6H38c-2.6-12.9,0.2-21.2,8.5-25c7.9,0.8,12.6,3.2,14.1,7.3l20.2,39.3l-3.9,3.9c3.6,3.5,4.1,6.1,1.6,8
	L63.1,75.4h-4.8C55.2,66,47.9,58.7,36.4,53.8l-7.1-0.5L27,61.8c1.5,15.2,5.2,26.9,10.9,35.4l2.3-2.3c1.7-5.3,4.3-8.5,7.8-9.6
	l30.5-10.1c3.6-0.8,8.3,0.8,14.1,4.5c-3.1,6.1-2.8,13.3,0.7,19.1l1.6-0.6c-2.1,3.4,0.3,10.6,7.1,21.6l8.6,8.6
	c-5,7.9-12.4,14.1-21.1,17.7h-3.1l-14.9-20.5l-3.1,2.9l0.9,1.1L49,141.4l-4.7,0.6c-12.6-4.5-22.8-15.2-30.7-31.8
	C5.3,88.9,3,72.2,6.7,60.1C13.4,43.7,22.3,34.3,33.3,31.6z M41.8,102.3l12.5,14c2.4,1,5.1-0.1,6.2-2.5c0-0.1,0.1-0.2,0.1-0.3
	l5.5-14.8L65.3,96l-20.2,6.8L41.8,102.3z"/>
<path class="st0" d="M91.1,4.8L102,7.6c3.6,6.1,10.6,12.4,21.1,18.8l45.3,18.7l4.7,5.1c-1.4,7-5.3,13.3-10.9,17.7l18-6.2l10.1,3.9
	c1.6,1.9-0.2,5.3-5.4,10.1l2.3,0.6l-3.8,2.3L184,81c-2.5-0.4-4.4,3-5.4,10.1c-0.6,10.6,4.4,22,14.8,34.1l-9.4,12.6l-8.5,6.3
	c-6.2-1.5-11.2-6.8-14.9-15.9l-3.8-17.7l3.1-20L134,101l1.6,14.3L120,129.4l-5.4-1.7l-3.1-12.6l-3.1-11.9c1.5-4.5,0.7-15.7-2.4-33.5
	c0-9.1-8.6-23.1-25.7-42.1C81.7,14.7,85.3,7.1,91.1,4.8z M128.8,60.8l1.6,10.9l10.9-6.8l-9.4-4.6L128.8,60.8z"/>
<path class="st0" d="M228.7,8.8c5.7-0.9,11.6,1,15.6,5.2c-1.6,22.3,0.2,40.9,5.4,55.8l4.7,15.3l7.1,5.1l-3.1,2.8l8.5,15.4l2.5-0.6
	c-1.7,1.9,3,6.3,14.1,13.1l-8,13.2l-9.4,6.8c-12.1-5.4-21.6-15.2-26.6-27.4l-4.8-11.9l-24.2,3.9c-6.7,8.5-14.9,15.6-24.1,21.1
	l-4.7-0.6l-0.8-5.7v-8l12.6-11.9l21-29.5l6.2-15.4C215,35.4,217.6,19.8,228.7,8.8z M228.7,84.3v2.3h2.5v-3.4L228.7,84.3z"/>
<path class="st0" d="M273.9,9.2l10.9,1.7c7.3,11.3,19.8,21.2,37.5,29.7l16.4,6.8c16.2,2.2,25.4,4.6,27.5,7.3l-8.7,13.7l-7.8,6.8
	c-3.1,1.5-16.2-1.5-39.1-9.1l7.8,12.6c16.7-0.4,27.1,1.7,31.3,6.3l-7.8,11.4l-12.6,8h-5.4l0.7,22.7L308.2,139l-4.7-1.1l-3-33.1
	l-8.7-6.1V83.3l-16.3-37c-10-11.8-13.6-18.4-11-20L273.9,9.2z"/>
<path class="st0" d="M358.6,9.2l10.9,1.7c7.3,11.3,19.7,21.2,37.5,29.7l16.3,6.8c16.2,2.3,25.3,4.7,27.4,7.3l-8.7,13.6l-7.7,6.8
	c-3.1,1.5-16.2-1.5-39.1-9.1l7.8,12.6c16.7-0.4,27.1,1.7,31.3,6.3l-7.8,11.4l-12.6,8h-5.4l0.7,22.7L392.9,139l-4.7-1.1l-3.1-33
	l-8.6-6.2V83.3l-16.4-37c-9.9-11.8-13.6-18.4-10.9-20L358.6,9.2z"/>
<path class="st0" d="M450.4,9.2c8.8,2.3,13.5,4.7,14.1,7.4l-4,6.3l-17.2,8.6h-3.9l-1.6-4l7.8-15.3L450.4,9.2z M451.4,43.6
	c8.9,0.4,14.4,6.1,16.5,17.1c0,8.8,4.2,23.6,12.5,44.4l9.4,14.8c0.5,3.8-6.3,10.5-20.2,20c-3.1,0.4-7.3-4.6-12.6-14.8l-10.1-34.1
	l-3.8-8l1.6-2.3c-4.2-9.9-5.6-18.4-4.1-25.6l7.8-10.3L451.4,43.6z"/>
<path class="st0" d="M486.7,75.7c2.1,1.5,8.3,0.8,18.8-2.3c-5.7-20.8-7.2-35.6-4.7-44.4l7.1-13.6l3.9-1.6c11-0.4,15.7,4.7,14.1,15.3
	l0.8,15.9l3.8,6.3l-1.6,0.5c0,5.1,1.3,8,4,9.1l-2.5,2.3l1.6,5.1l29.7-6.8c8.3,1.5,12.5,3.8,12.5,6.8l-16.3,15.9l-5.5,1.6l-15.6,3.4
	c2.7,11.4,6.6,19.7,11.8,25l-20.2,18.8c-4.2,0-7.1-3-8.7-9.1l-7.8-25.1l-1.6-3.9l-25,4l-7.8-1.7l-0.7-1.7l4.7-17.7L486.7,75.7z"/>
<path class="st0" d="M575.5,9.2c8.8,2.3,13.5,4.7,14.1,7.4l-4,6.3l-17.2,8.6h-3.8l-1.6-4l7.8-15.4L575.5,9.2z M576.4,43.6
	c8.9,0.4,14.4,6.1,16.5,17.1c0,8.8,4.2,23.6,12.6,44.4l9.4,14.8c0.5,3.8-6.3,10.5-20.3,20c-3.1,0.4-7.3-4.6-12.5-14.8l-10.2-34.1
	l-3.8-8l1.6-2.3c-4.3-9.9-5.6-18.4-4.1-25.6l7.8-10.3L576.4,43.6z"/>
<path class="st0" d="M28.8,149.5c5.9-0.8,13.8,1.6,23.6,7c1.1-5.5,3.6-10.6,7.3-14.8c3.5-0.6,7,0.2,9.9,2.3
	c0.3,12.2,3.9,24.1,10.5,34.4c0,3.1-4.4,7.6-13.1,13.5l-4.1-1.1c-2.2-6.2-7.1-11.8-14.7-17c-5.8-4.4-12.7-7.3-19.9-8.4
	c0.8,9.7,5.7,20,14.7,30.9l16.2,14.3l8.8,3.9l5.2-0.7l-0.5-1.6l2.7-1.1c0-2.3,2-5.1,6.1-8.5l7.9,1.1l2.2,2.8
	c-3.5,9.8-12.6,17.9-27.3,24.3c-7.9,1.4-19.2-5.1-33.9-19.3c-8.1-10-14.3-21.4-18.2-33.6l1.2-11.2C14.6,158.2,20.7,151.5,28.8,149.5
	z"/>
<path class="st0" d="M102.3,181.3c6.9,0.3,10.8,3.8,11.5,10.7l0.5,4.4l15.8-2l-6-34.5c0.4-6,2.9-11.6,7.2-15.8
	c6.5,0.5,10.1,1.7,10.3,3.5c-0.7,6.9,1.4,22.1,6.5,45.7l4.3,4.3l-0.5,5.6l3.3,2.4l-0.6,3.6l-13.2,10.7c-2.5,0.5-5.1-2.5-7.6-9.5
	v-1.2l-15.2,2.4l-5.9,4.8l-0.6,2.4l-8.1,5.1c-3.4-0.6-5.3-3.9-5.7-10c-2.8-16.2-3.7-25.3-2.7-27.4l3.9-4.7L102.3,181.3z"/>
<path class="st0" d="M147.9,135.8l7.6,1.9c2.5,4.2,7.4,8.6,14.7,13.1l31.6,13.1l3.3,3.6c-1,4.9-3.7,9.2-7.6,12.3l12.6-4.3l7.1,2.7
	c1.1,1.3-0.2,3.7-3.8,7.1l1.6,0.4l-2.9,1.6l0.5,1.6c-1.8-0.3-3.1,2.1-3.8,7.1c-0.3,7.5,3.1,15.4,10.4,23.8l-6.5,8.7l-6,4.3
	c-4.3-1.1-7.8-4.8-10.4-11.1l-2.7-12.3l2.2-13.9l-18,7.1l1.1,10l-10.9,9.9l-3.8-1.2l-2.2-8.7l-2.2-8.4c1.1-3.2,0.5-11-1.7-23.4
	c0-6.3-6-16.1-17.9-29.3C141.4,142.7,143.9,137.4,147.9,135.8z M174.1,174.8l1.1,7.6l7.6-4.7l-6.5-3.1L174.1,174.8z"/>
<path class="st0" d="M217.2,143l2.8,0.8l1.6,1.6h5.5l14.7,7.1l18.4,11.8l-1.1,0.4c16,15.9,21.8,28.6,17.4,38.1
	c-6.1,13-17.3,21.1-33.7,24.2c-12-0.3-23.1-11.1-33.2-32.5c-5.1-18.8-6.7-31.6-4.8-38.4C208,149.3,212.1,144.9,217.2,143z
	 M221.7,165.4c1.8,20.9,10.2,36.2,25.1,46c8.7,0.8,12.7-1.7,12-7.6c-2.5-14.3-14.6-27.1-36.5-38.4H221.7z"/>
<path class="st0" d="M280.6,157.1l38.7,30.9h1.6c-2.6-9.3-3.7-18.9-3.3-28.6l-1.1,0.4l-1.1-5.6c5.8-7.7,10.4-11.6,13.7-11.9h2.2
	l3.3,3.6l-0.6,11.5l3.3,21.1l9.8,15.9c-0.7,1.6,1.6,7.4,7.1,17.5c0.3,2.4-4.6,6.7-14.7,13.1l-42.9-28.1c2.5,4.2,3.1,6.9,1.6,8
	c-1.1,1.8-5.9,4.8-14.6,9.1c-2.8,0.2-5.2-1.9-5.4-4.6c0-0.1,0-0.3,0-0.4l-8.2-21.8l-4.4-13.1C269,164.5,274.1,158.9,280.6,157.1z"/>
<path class="st0" d="M353.7,138.9c6.2,1.6,9.4,3.3,9.8,5.2l-2.8,4.3l-12,6h-2.7l-1.1-2.8l5.5-10.7L353.7,138.9z M354.4,162.9
	c6.2,0.3,10.1,4.3,11.5,11.9c0,6.1,2.9,16.4,8.7,30.9l6.5,10.3c0.3,2.5-4.4,7.3-14.2,13.9c-2.2,0.3-5.1-3.2-8.7-10.3l-7.1-23.8
	l-2.7-5.6l1.1-1.6c-2.7-5.5-3.7-11.8-2.8-17.9l5.5-7.1L354.4,162.9z"/>
<path class="st0" d="M389.5,149.5c5.9-0.8,13.8,1.6,23.5,7c1.1-5.5,3.6-10.6,7.3-14.8c3.5-0.6,7,0.2,9.9,2.3
	c0.3,12.2,3.9,24.1,10.5,34.4c0,3.1-4.4,7.6-13.1,13.5l-4.1-1.1c-2.1-6.2-7-11.8-14.7-17c-5.8-4.4-12.6-7.3-19.9-8.4
	c0.8,9.7,5.7,20,14.7,30.9l16.2,14.3l8.8,3.9l5.3-0.7l-0.5-1.6l2.7-1.1c0-2.3,2-5.1,6.1-8.5l7.9,1.1l2.2,2.8
	c-3.5,9.8-12.6,17.9-27.3,24.3c-7.9,1.4-19.2-5.1-33.9-19.3c-8.2-9.9-14.4-21.4-18.3-33.6l1.2-11.2
	C375.2,158.2,381.4,151.5,389.5,149.5z"/>
<path class="st0" d="M462.7,139.1c3.8,0.1,7.1,2.7,8.1,6.3l5.1,30.9l1.4,34l29.5-10.7l7.1,3.2c1.1,2.1-3.1,6.2-12.6,12.3l-29.9,10.7
	l-3.3,2.4l0.5,1.2l-1.6-0.8l-5.5,1.2l-1.1-3.2l1.1-24.6l-8.2-49.2C457.7,143.1,460.9,138.5,462.7,139.1z"/>
<path class="st0" d="M524.7,154.6c17,5.1,28.8,16.4,35.4,34.1l-3.3,5.1h-1.6l-8.7,7.1h-13.6c-0.3,2.4,3.1,5.6,10.4,9.5l7-1.6
	l6.5-10.7c2.9-2.6,7.1-2.5,12.6,0.4c1.8,2.1-3.1,9.5-14.7,22.2c-7.3,5.1-12.5,7.6-15.8,7.6c-13.1-2.1-21.8-10.5-26.1-25.3l-3.3-3.6
	l1.6-11.5l-1.1-13.1l9.3-18.6L524.7,154.6z M526.5,179.5l2.2,9.1l9.8-1.2l-9.2-10.7l-1.7,0.4L526.5,179.5z"/>
<path class="st0" d="M571.5,143l4.3,1.1l20.7,13.9l14.2,6.3c1.5,2.4-2.9,5.9-13.1,10.3l-18.5-8.7c0.7,4.2,2.4,6.9,5.1,7.9
	c0.3,1.1,12.5,1.7,36.4,2c6.2,2.9,8.9,5.4,8.2,7.6l-1.1,6.3l-5.1,7.1l0.6,1.2l-2.2,1.6l1.1,1.2l-6,7.1l0.6,2l-3.3,2.7
	c0.7,1.6-0.7,4.2-4.4,7.9l-9.8,6l-3.3-1.6l0.5-2.4c-10.5-10.3-18.3-16.7-23.3-19l-1.7-2.8l8.7-11.9c-13.1-2.1-19.8-9.6-20.2-22.6
	l1.1-13.1l7.6-9.5L571.5,143z M583.9,190.5l19.1,16.6l2.7-2.4l5.5-11.5L609,190L583.9,190.5z"/>
</svg>
