<svg id="Слой_1" data-name="Слой 1" xmlns="http://www.w3.org/2000/svg" viewBox="0 0 257 100"><defs><style>.cls-1{fill:#ffde00;}</style></defs><path class="cls-1" d="M16.19,15.44h1.86q-1.57-7.66,3.38-9.91Q26.1,6,27,8.44l8,15.56-1.53,1.56q2.15,2.06.62,3.16L28,32.77H26.09q-1.85-5.61-8.66-8.56L14.62,24l-.9,3.37q.9,9,4.33,14l.9-.91q1-3.15,3.1-3.81l12.09-4q2.14-.45,5.57,1.8A7.77,7.77,0,0,0,40,42l.62-.24q-1.24,2,2.8,8.56l3.39,3.4a17.94,17.94,0,0,1-8.34,7H37.24L31.33,52.6l-1.24,1.15.34.45-8,4.71-1.86.24Q13.1,56.45,8.43,46.54,3.48,33.93,5.67,26.71,9.68,17,16.19,15.44Zm3.38,28L24.52,49A1.86,1.86,0,0,0,27,47.92l2.19-5.85-.33-1.15-8,2.7Z"/><path class="cls-1" d="M39.09,4.83l4.33,1.11q2.14,3.61,8.34,7.46L69.7,20.82l1.86,2a11.71,11.71,0,0,1-4.33,7l7.14-2.46,4,1.56c.64.76-.08,2.11-2.14,4l.9.25-1.52.9.28.9c-1-.16-1.73,1.19-2.14,4q-.33,6.31,5.86,13.52l-3.72,5L72.51,60q-3.7-.9-5.9-6.31l-1.52-7,1.23-7.9L56.09,42.9l.62,5.65-6.19,5.61-2.14-.66-1.24-5L45.9,43.8q.9-2.7-.95-13.28,0-5.4-10.19-16.67Q35.66,6.19,39.09,4.83ZM54,27l.62,4.3,4.33-2.7-3.72-1.81Z"/><path class="cls-1" d="M93.56,6.39a7.07,7.07,0,0,1,6.18,2.05q-.94,13.27,2.15,22.08l1.85,6.07,2.81,2-1.23,1.11,3.38,6.1,1-.24q-1,1.14,5.57,5.2L112.12,56l-3.71,2.7A20.2,20.2,0,0,1,97.89,47.85L96,43.14,86.41,44.7a34.54,34.54,0,0,1-9.56,8.35L75,52.81l-.33-2.25V47.4l5-4.71L88,31l2.47-6.1Q87,12.95,93.56,6.39Zm0,29.89v.9h1V35.83Z"/><path class="cls-1" d="M111.46,6.57l4.33.69Q120.13,14,130.64,19l6.48,2.7Q146.74,23,148,24.59L144.54,30l-3.09,2.7q-1.86.91-15.47-3.6l3.09,5q9.9-.21,12.38,2.49l-3.09,4.51-5,3.15h-2.14l.29,9-6.48,4.71-1.85-.45L122,44.42,118.55,42v-6.1l-6.47-14.63q-5.91-7-4.34-7.9Z"/><path class="cls-1" d="M145,6.57l4.33.69Q153.64,14,164.16,19l6.47,2.7q9.62,1.35,10.86,2.91L178.06,30,175,32.7q-1.86.91-15.48-3.6l3.1,5q9.9-.21,12.38,2.49l-3.1,4.51-5,3.15h-2.14l.28,9-6.47,4.71-1.86-.45-1.24-13.07L152.07,42v-6.1l-6.48-14.63q-5.9-7-4.33-7.9Z"/><path class="cls-1" d="M181.35,6.57c3.49.9,5.34,1.88,5.57,2.94L185.35,12l-6.81,3.39H177l-.62-1.59,3.1-6.07Zm.38,13.62q5.28.24,6.52,6.76,0,5.21,4.95,17.58l3.71,5.85q.28,2.26-8,7.91c-1.24.14-2.89-1.82-5-5.86l-4-13.52-1.52-3.15.62-.91Q176.5,29,177.4,24.7l3.09-4.06Z"/><path class="cls-1" d="M195.72,32.88c.83.6,3.3.3,7.43-.9q-3.37-12.37-1.86-17.58L204.1,9l1.53-.65c4.34-.17,6.2,1.86,5.57,6.06l.33,6.31,1.52,2.5-.62.21c0,2,.53,3.16,1.58,3.6l-1,.9.62,2,11.76-2.71c3.3.6,4.95,1.51,4.95,2.71l-6.47,6.31-2.19.65-6.19,1.36q1.58,6.75,4.66,9.91l-8,7.45c-1.65,0-2.8-1.2-3.43-3.6l-3.09-9.92L205,40.54l-9.91,1.59L192,41.44l-.29-.66,1.86-7Z"/><path class="cls-1" d="M230.86,6.57q5.23,1.35,5.57,2.94L234.86,12l-6.81,3.39h-1.52l-.62-1.59L229,7.71Zm.38,13.62q5.28.24,6.52,6.76,0,5.21,5,17.58l3.72,5.85q.28,2.26-8.05,7.91c-1.24.14-2.89-1.82-4.95-5.86l-4.05-13.52-1.52-3.15.62-.91Q226,29,226.91,24.7L230,20.64Z"/><path class="cls-1" d="M14.43,62.11q3.53-.45,9.33,2.76A12.58,12.58,0,0,1,26.65,59a5.17,5.17,0,0,1,3.91.92,26.74,26.74,0,0,0,4.15,13.63q0,1.83-5.18,5.34l-1.62-.44q-1.28-3.66-5.84-6.74A17.23,17.23,0,0,0,14.2,68.4q.46,5.79,5.84,12.22l6.41,5.65,3.48,1.53L32,87.51l-.2-.63,1.06-.44c0-.93.81-2,2.43-3.35l3.12.43.86,1.09q-2.1,5.82-10.82,9.61-4.71.81-13.41-7.63A40.21,40.21,0,0,1,7.83,73.28l.46-4.45A8.19,8.19,0,0,1,14.43,62.11Z"/><path class="cls-1" d="M43.52,74.72q4.11.15,4.55,4.23l.2,1.74,6.27-.79L52.15,66.25A9.54,9.54,0,0,1,55,60c2.59.21,4,.68,4.08,1.4q-.44,4.1,2.59,18.08l1.72,1.71-.2,2.2,1.3.94-.23,1.43L59.05,90c-1,.21-2-1-3-3.77v-.46l-6,.94-2.35,1.89-.24.94-3.22,2Q42.23,91.21,42,87.6,40.31,78,40.93,76.75l1.53-1.88Z"/><path class="cls-1" d="M61.59,56.7l3,.77q1.48,2.52,5.81,5.2l12.51,5.17,1.29,1.42a8.17,8.17,0,0,1-3,4.86l5-1.71L89,73.49c.44.53-.06,1.48-1.5,2.83l.63.17L87,77.12l.2.63c-.71-.12-1.21.83-1.49,2.82Q85.51,85,89.83,90l-2.59,3.45-2.36,1.72q-2.58-.63-4.11-4.4l-1.06-4.86.86-5.51-7.13,2.83.43,3.94-4.32,3.91-1.49-.46-.86-3.45-.86-3.31c.42-1.26.19-4.34-.67-9.26q0-3.76-7.1-11.62Q59.2,57.64,61.59,56.7ZM71.94,72.12l.43,3,3-1.88L72.81,72Z"/><path class="cls-1" d="M89,59.55l1.1.32.63.62h2.16l5.84,2.83L106,68l-.43.17q9.49,9.42,6.9,15.08Q108.84,91,99.14,92.85,92,92.7,86,80q-3-11.14-1.92-15.22Q86,60.66,89,59.55Zm1.8,8.85q1.08,12.39,9.92,18.21,5.17.47,4.74-3Q104,75.13,91,68.4Z"/><path class="cls-1" d="M114.12,65.11l15.33,12.25h.63a35.21,35.21,0,0,1-1.29-11.31l-.43.15-.43-2.2q3.45-4.55,5.41-4.71h.86l1.29,1.42-.23,4.54,1.3,8.34,3.88,6.28q-.44.94,2.82,6.91.19,1.41-5.84,5.17l-17-11.14q1.5,2.52.63,3.15-.63,1.08-5.8,3.59a2,2,0,0,1-2.16-2l-3.25-8.65-1.73-5.18Q110.24,66.19,114.12,65.11Z"/><path class="cls-1" d="M143.07,57.91c2.44.63,3.73,1.31,3.89,2.05l-1.1,1.72-4.74,2.37h-1.06l-.44-1.12,2.16-4.22Zm.27,9.49c2.46.12,4,1.69,4.55,4.72q0,3.61,3.45,12.25l2.59,4.08c.13,1-1.74,2.88-5.61,5.51-.86.1-2-1.27-3.45-4.09l-2.82-9.42L141,78.25l.44-.63a12,12,0,0,1-1.1-7.07l2.16-2.83Z"/><path class="cls-1" d="M157.23,62.11q3.53-.45,9.32,2.76A12.78,12.78,0,0,1,169.44,59a5.19,5.19,0,0,1,3.92.92,26.63,26.63,0,0,0,4.14,13.63q0,1.83-5.17,5.34l-1.63-.44q-1.26-3.66-5.84-6.74A17.15,17.15,0,0,0,157,68.4q.47,5.79,5.84,12.22l6.4,5.65,3.49,1.53,2.09-.29-.2-.63,1.06-.44c0-.93.81-2,2.42-3.35l3.12.43.86,1.09q-2.09,5.82-10.81,9.61-4.72.81-13.41-7.63a40.21,40.21,0,0,1-7.23-13.31l.46-4.45A8.18,8.18,0,0,1,157.23,62.11Z"/><path class="cls-1" d="M186.22,58a3.42,3.42,0,0,1,3.21,2.51l2,12.25L192,86.23,203.67,82l2.82,1.26c.42.84-1.24,2.46-5,4.88l-11.84,4.23-1.3.94.2.49-.63-.32-2.16.46-.43-1.26.43-9.73-3.25-19.48Q185.13,57.65,186.22,58Z"/><path class="cls-1" d="M210.76,64.12q10.11,3,14,13.5l-1.29,2h-.63l-3.46,2.83H214q-.19,1.42,4.12,3.77l2.79-.63,2.59-4.23q1.72-1.56,5,.15,1.06,1.26-5.84,8.79-4.31,3-6.24,3-7.76-1.26-10.35-10l-1.29-1.43.63-4.54-.43-5.19,3.68-7.37Zm.73,9.88.86,3.6,3.88-.46-3.65-4.25-.66.17Z"/><path class="cls-1" d="M229.29,59.55,231,60l8.19,5.49L244.82,68q.87,1.43-5.18,4.09l-7.33-3.46c.29,1.68.94,2.72,2,3.14q.19.63,14.43.8,3.69,1.71,3.25,3l-.43,2.51-2,2.83.23.48-.86.63.43.46L247,85.31l.23.8-1.29,1.08c.28.63-.29,1.68-1.73,3.14l-3.88,2.37-1.3-.63.2-.94Q233,85,230,83.59l-.66-1.11,3.45-4.71q-7.77-1.26-8-8.94l.43-5.19,3-3.77Zm4.91,18.78,7.57,6.59,1.06-.94L245,79.41l-.87-1.25Z"/></svg>