<svg width="59" height="60" viewBox="0 0 59 60" fill="none" xmlns="http://www.w3.org/2000/svg">
<g clip-path="url(#clip0)">
<path d="M59 11.3963C56.8059 12.375 54.4681 13.0237 52.0306 13.3387C54.5381 11.8162 56.4519 9.42375 57.3517 6.54C55.0138 7.9575 52.4326 8.95875 49.6817 9.5175C47.4618 7.11375 44.2979 5.625 40.8464 5.625C34.1499 5.625 28.7588 11.1525 28.7588 17.9288C28.7588 18.9038 28.8399 19.8412 29.0391 20.7337C18.9832 20.235 10.0853 15.3338 4.10787 7.8675C3.06431 9.70875 2.45219 11.8162 2.45219 14.085C2.45219 18.345 4.60938 22.1213 7.82487 24.3075C5.88156 24.27 3.97512 23.6963 2.36 22.7925C2.36 22.83 2.36 22.8787 2.36 22.9275C2.36 28.905 6.55269 33.87 12.0507 35.0138C11.0662 35.2875 9.99312 35.4187 8.8795 35.4187C8.10513 35.4187 7.32337 35.3738 6.58956 35.2087C8.15675 40.08 12.6039 43.6613 17.8918 43.7775C13.7765 47.0513 8.55131 49.0238 2.89469 49.0238C1.90275 49.0238 0.951375 48.9787 0 48.855C5.35794 52.3687 11.7078 54.375 18.5555 54.375C40.8132 54.375 52.982 35.625 52.982 19.3725C52.982 18.8287 52.9636 18.3038 52.9377 17.7825C55.3383 16.05 57.3554 13.8863 59 11.3963Z" fill="black"/>
</g>
<defs>
<clipPath id="clip0">
<rect width="59" height="60" fill="white"/>
</clipPath>
</defs>
</svg>
