<svg xmlns="http://www.w3.org/2000/svg" viewBox="0 0 346.84 780.29"><defs><style>.cls-1{fill:#fff;}</style></defs><g id="Layer_2" data-name="Layer 2"><g id="Layer_1-2" data-name="Layer 1"><path class="cls-1" d="M346.84,468.14V752.41A22.92,22.92,0,0,1,329,770c-15.65,3.58-80.6,10.29-155.53,10.29S33.54,773.58,17.89,770A22.92,22.92,0,0,1,0,752.41V468.14c0-85.57,39.06-136.85,39.06-136.85s21.17-35.77,52-54.71,31.16-40.84,31.16-40.84L118.51,78.47a32.26,32.26,0,0,1-12.82-2.68v-18l2.09-2.38-2.09-2.84V10.65s.45-5.07,8.8-7S173.42,0,173.42,0,224,1.7,232.35,3.64s8.8,7,8.8,7V52.53l-2.09,2.84,2.09,2.38v18a32.26,32.26,0,0,1-12.82,2.68L224.6,235.74s.3,21.91,31.16,40.84,52,54.71,52,54.71S346.84,382.57,346.84,468.14Z"/></g></g></svg>